<svg xmlns="http://www.w3.org/2000/svg" viewBox="0 0 600 80">
  <defs>
    <linearGradient id="worktravelBg" x1="0%" y1="0%" x2="100%" y2="0%">
      <stop offset="0%" style="stop-color:#34495e;stop-opacity:1" />
      <stop offset="100%" style="stop-color:#2c3e50;stop-opacity:1" />
    </linearGradient>
  </defs>
  
  <!-- Background -->
  <rect width="600" height="80" fill="url(#worktravelBg)"/>
  
  <!-- Background pattern - subtle work/travel elements -->
  <g opacity="0.15">
    <!-- Travel elements -->
    <g transform="translate(50, 20)">
      <!-- Airplane -->
      <path d="M 0 20 L 25 15 L 30 10 L 35 15 L 25 20 L 30 25 L 25 30 L 0 25 Z" fill="white"/>
      <circle cx="15" cy="20" r="3" fill="white"/>
    </g>
    
    <g transform="translate(150, 25)">
      <!-- Mountains -->
      <path d="M 0 40 L 15 10 L 30 25 L 45 5 L 60 40 Z" fill="white"/>
    </g>
    
    <g transform="translate(280, 30)">
      <!-- Building/workplace -->
      <rect x="0" y="10" width="30" height="30" fill="white"/>
      <rect x="5" y="15" width="6" height="6" fill="#34495e"/>
      <rect x="15" y="15" width="6" height="6" fill="#34495e"/>
      <rect x="5" y="25" width="6" height="6" fill="#34495e"/>
      <rect x="15" y="25" width="6" height="6" fill="#34495e"/>
      <rect x="12" y="35" width="6" height="5" fill="#34495e"/>
    </g>
    
    <g transform="translate(380, 20)">
      <!-- Globe -->
      <circle cx="20" cy="20" r="15" fill="none" stroke="white" stroke-width="2"/>
      <ellipse cx="20" cy="20" rx="15" ry="8" fill="none" stroke="white" stroke-width="1"/>
      <line x1="5" y1="20" x2="35" y2="20" stroke="white" stroke-width="1"/>
    </g>
    
    <g transform="translate(480, 25)">
      <!-- Resort/palm tree -->
      <rect x="18" y="20" width="4" height="20" fill="white"/>
      <ellipse cx="20" cy="18" rx="12" ry="6" fill="white"/>
    </g>
  </g>
  
  <!-- Subtle geometric pattern -->
  <g opacity="0.08">
    <circle cx="100" cy="15" r="2" fill="white"/>
    <circle cx="200" cy="65" r="2" fill="white"/>
    <circle cx="350" cy="10" r="2" fill="white"/>
    <circle cx="450" cy="70" r="2" fill="white"/>
    <circle cx="550" cy="25" r="2" fill="white"/>
  </g>
</svg>