<svg xmlns="http://www.w3.org/2000/svg" viewBox="0 0 600 80">
  <defs>
    <linearGradient id="aupairBg" x1="0%" y1="0%" x2="100%" y2="0%">
      <stop offset="0%" style="stop-color:#2c3e50;stop-opacity:1" />
      <stop offset="100%" style="stop-color:#34495e;stop-opacity:1" />
    </linearGradient>
  </defs>
  
  <!-- Background -->
  <rect width="600" height="80" fill="url(#aupairBg)"/>
  
  <!-- Background pattern - family and childcare elements -->
  <g opacity="0.15">
    <!-- House/home -->
    <g transform="translate(50, 25)">
      <path d="M 15 10 L 0 25 L 30 25 Z" fill="white"/>
      <rect x="5" y="25" width="20" height="20" fill="white"/>
      <rect x="12" y="35" width="6" height="10" fill="#2c3e50"/>
      <rect x="8" y="30" width="4" height="4" fill="#2c3e50"/>
      <rect x="18" y="30" width="4" height="4" fill="#2c3e50"/>
    </g>
    
    <!-- Children playing -->
    <g transform="translate(150, 30)">
      <!-- Playground swing -->
      <line x1="10" y1="5" x2="10" y2="25" stroke="white" stroke-width="2"/>
      <line x1="25" y1="5" x2="25" y2="25" stroke="white" stroke-width="2"/>
      <line x1="5" y1="5" x2="30" y2="5" stroke="white" stroke-width="2"/>
      <rect x="12" y="20" width="6" height="8" fill="white" rx="3"/>
      <line x1="10" y1="5" x2="15" y2="20" stroke="white" stroke-width="1"/>
      <line x1="25" y1="5" x2="20" y2="20" stroke="white" stroke-width="1"/>
    </g>
    
    <!-- Heart (care/love) -->
    <g transform="translate(280, 25)">
      <path d="M 15 35 C 10 30, 0 30, 0 40 C 0 50, 15 60, 15 60 C 15 60, 30 50, 30 40 C 30 30, 20 30, 15 35 Z" fill="white"/>
    </g>
    
    <!-- Books/education -->
    <g transform="translate(380, 30)">
      <rect x="0" y="15" width="20" height="15" fill="white"/>
      <rect x="5" y="10" width="20" height="15" fill="white" opacity="0.8"/>
      <rect x="10" y="5" width="20" height="15" fill="white" opacity="0.6"/>
    </g>
    
    <!-- Stars (dreams/aspirations) -->
    <g transform="translate(480, 20)">
      <path d="M 15 5 L 18 12 L 25 12 L 20 17 L 22 24 L 15 20 L 8 24 L 10 17 L 5 12 L 12 12 Z" fill="white"/>
    </g>
    
    <!-- US Flag elements -->
    <g transform="translate(520, 25)">
      <rect x="0" y="0" width="25" height="15" fill="white" opacity="0.6"/>
      <rect x="0" y="0" width="25" height="2" fill="white"/>
      <rect x="0" y="4" width="25" height="2" fill="white"/>
      <rect x="0" y="8" width="25" height="2" fill="white"/>
      <rect x="0" y="0" width="10" height="8" fill="white" opacity="0.8"/>
    </g>
  </g>
  
  <!-- Subtle decorative elements -->
  <g opacity="0.08">
    <circle cx="120" cy="15" r="2" fill="white"/>
    <circle cx="220" cy="65" r="2" fill="white"/>
    <circle cx="320" cy="10" r="2" fill="white"/>
    <circle cx="420" cy="70" r="2" fill="white"/>
    <circle cx="580" cy="25" r="2" fill="white"/>
  </g>
</svg>